<svg width="730" height="300" viewBox="0 0 730 300" fill="none" xmlns="http://www.w3.org/2000/svg">
<path fill-rule="evenodd" clip-rule="evenodd" d="M66.8146 137.332C234.826 -19.1108 495.174 -19.1108 663.185 137.332L666.065 140.014H730V120.014H673.91C499.107 -40.0046 230.893 -40.0046 56.0898 120.014H0V140.014H63.9349L66.8146 137.332ZM310 170.014V43.5826C316.619 42.7168 323.287 42.0052 330 41.4514V170.014H310ZM240 170.014V58.9288C233.259 61.0275 226.591 63.2914 220 65.7158V170.014H240ZM130 111.861C136.538 107.439 143.207 103.197 150 99.141V170.014H130V111.861ZM600 111.861C593.462 107.439 586.793 103.197 580 99.141V170.014H600V111.861ZM490 58.9288C496.741 61.0275 503.409 63.2914 510 65.7158V170.014H490V58.9288ZM420 43.5826C413.381 42.7168 406.713 42.0052 400 41.4514V170.014H420V43.5826Z" fill="black"/>
<path d="M39.0823 208.056V209.107L24.1053 236.704C22.5383 239.58 20.8985 241.571 19.1858 242.677C17.5096 243.783 15.2685 244.336 12.4626 244.336H5.24741V238.142H12.4626C13.5194 238.142 14.3575 238.032 14.977 237.81C15.5965 237.589 16.1431 237.184 16.6168 236.594L0 209.107V208.056H7.21519L20.3884 230.178L31.9764 208.056H39.0823Z" fill="black"/>
<path d="M63.7461 245C59.4826 245 55.7474 244.244 52.5407 242.733C49.334 241.221 46.856 239.082 45.1069 236.317C43.3942 233.552 42.5378 230.307 42.5378 226.584V225.865C42.5378 222.141 43.3942 218.896 45.1069 216.131C46.856 213.329 49.334 211.172 52.5407 209.66C55.7474 208.149 59.4826 207.393 63.7461 207.393C67.6452 207.393 71.1435 208.056 74.2409 209.384C77.3748 210.674 79.8163 212.481 81.5654 214.804C83.351 217.126 84.2438 219.726 84.2438 222.602V223.044H77.3019V222.602C77.3019 220.942 76.7189 219.449 75.5528 218.122C74.4231 216.758 72.8197 215.707 70.7426 214.97C68.6655 214.195 66.3334 213.808 63.7461 213.808C59.1546 213.808 55.6199 214.84 53.142 216.905C50.7005 218.97 49.4797 221.919 49.4797 225.754V226.694C49.4797 230.529 50.7005 233.478 53.142 235.543C55.5835 237.571 59.1182 238.585 63.7461 238.585C66.4062 238.585 68.7566 238.216 70.7973 237.479C72.8744 236.741 74.4778 235.709 75.6074 234.381C76.7371 233.054 77.3019 231.543 77.3019 229.847V229.404H84.2438V229.847C84.2438 232.722 83.351 235.322 81.5654 237.644C79.8163 239.93 77.3748 241.737 74.2409 243.064C71.1435 244.355 67.6452 245 63.7461 245Z" fill="black"/>
<path d="M129.61 243.286V244.336H122.668L118.951 236.041H99.9292L96.2123 244.336H89.2704V243.286L105.669 208.056H113.212L129.61 243.286ZM116.109 229.847L109.44 215.025L102.772 229.847H116.109Z" fill="black"/>
<path d="M168.442 208.056V244.336H161.61V231.45C157.018 231.967 153.21 232.225 150.186 232.225C138.743 232.225 133.022 227.579 133.022 218.288V208.056H139.855V217.845C139.855 220.684 140.693 222.731 142.369 223.984C144.046 225.201 146.833 225.809 150.732 225.809C153.392 225.809 157.018 225.551 161.61 225.035V208.056H168.442Z" fill="black"/>
<path d="M212.216 208.056V214.251H187.837V223.044H211.123V229.238H187.837V238.142H212.216V244.336H181.005V208.056H212.216Z" fill="black"/>
<path d="M253.575 225.699C255.288 226.436 256.6 227.468 257.511 228.796C258.422 230.086 258.877 231.635 258.877 233.441V234.05C258.877 236.114 258.331 237.921 257.237 239.47C256.181 241.018 254.668 242.216 252.701 243.064C250.733 243.912 248.437 244.336 245.813 244.336H223.785V208.056H244.72C248.838 208.056 252.026 208.886 254.286 210.545C256.582 212.167 257.729 214.472 257.729 217.458V218.067C257.729 221.385 256.345 223.929 253.575 225.699ZM230.618 214.251V222.933H244.666C246.743 222.933 248.273 222.602 249.257 221.938C250.277 221.274 250.788 220.26 250.788 218.896V218.288C250.788 216.96 250.259 215.965 249.202 215.301C248.182 214.601 246.688 214.251 244.72 214.251H230.618ZM251.935 233.22C251.935 231.856 251.425 230.842 250.405 230.178C249.385 229.478 247.818 229.128 245.704 229.128H230.618V238.142H245.704C247.672 238.142 249.202 237.774 250.296 237.036C251.389 236.262 251.935 235.193 251.935 233.828V233.22Z" fill="black"/>
<path d="M289.605 245C285.341 245 281.606 244.244 278.4 242.733C275.193 241.221 272.715 239.082 270.966 236.317C269.253 233.552 268.397 230.307 268.397 226.584V225.865C268.397 222.141 269.253 218.896 270.966 216.131C272.715 213.329 275.193 211.172 278.4 209.66C281.606 208.149 285.341 207.393 289.605 207.393C293.504 207.393 297.002 208.056 300.1 209.384C303.234 210.674 305.675 212.481 307.424 214.804C309.21 217.126 310.103 219.726 310.103 222.602V223.044H303.161V222.602C303.161 220.942 302.578 219.449 301.412 218.122C300.282 216.758 298.679 215.707 296.602 214.97C294.524 214.195 292.192 213.808 289.605 213.808C285.014 213.808 281.479 214.84 279.001 216.905C276.559 218.97 275.339 221.919 275.339 225.754V226.694C275.339 230.529 276.559 233.478 279.001 235.543C281.442 237.571 284.977 238.585 289.605 238.585C292.265 238.585 294.616 238.216 296.656 237.479C298.733 236.741 300.337 235.709 301.466 234.381C302.596 233.054 303.161 231.543 303.161 229.847V229.404H310.103V229.847C310.103 232.722 309.21 235.322 307.424 237.644C305.675 239.93 303.234 241.737 300.1 243.064C297.002 244.355 293.504 245 289.605 245Z" fill="black"/>
<path d="M357.331 209.107L341.26 225.754L356.675 243.286V244.336H348.694L334.975 229.017H327.869V244.336H321.036V208.056H327.869V222.823H334.92L349.077 208.056H357.331V209.107Z" fill="black"/>
<path d="M375.026 208.056V234.935L396.836 208.056H403.668V244.336H396.836V217.458L375.026 244.336H368.194V208.056H375.026Z" fill="black"/>
<path d="M423.091 208.056V234.935L444.901 208.056H451.733V244.336H444.901V217.458L423.091 244.336H416.258V208.056H423.091ZM434.023 204.628C430.16 204.628 427.227 203.927 425.223 202.526C423.219 201.125 422.217 199.079 422.217 196.387V196H428.284V196.387C428.284 197.235 428.776 197.899 429.76 198.378C430.78 198.821 432.201 199.042 434.023 199.042C435.736 199.042 437.066 198.821 438.013 198.378C438.961 197.899 439.435 197.235 439.435 196.387V196H445.83V196.387C445.83 199.079 444.828 201.125 442.824 202.526C440.856 203.927 437.922 204.628 434.023 204.628Z" fill="black"/>
<path d="M511.899 208.056C516.017 208.056 519.26 209.07 521.629 211.098C524.034 213.089 525.237 215.818 525.237 219.283V219.892C525.237 223.357 524.034 226.104 521.629 228.132C519.26 230.123 516.017 231.119 511.899 231.119H496.321V244.336H489.489V208.056H511.899ZM511.735 224.924C513.849 224.924 515.471 224.5 516.6 223.652C517.73 222.767 518.295 221.514 518.295 219.892V219.283C518.295 217.661 517.73 216.426 516.6 215.578C515.471 214.693 513.849 214.251 511.735 214.251H496.321V224.924H511.735Z" fill="black"/>
<path d="M542.843 208.056V221.33H557.547C561.701 221.33 564.963 222.325 567.331 224.316C569.7 226.307 570.884 229.035 570.884 232.501V233.22C570.884 236.723 569.7 239.451 567.331 241.405C564.963 243.359 561.701 244.336 557.547 244.336H536.011V208.056H542.843ZM581.652 208.056V244.336H574.82V208.056H581.652ZM557.383 238.142C559.46 238.142 561.063 237.718 562.193 236.87C563.359 236.022 563.942 234.805 563.942 233.22V232.501C563.942 230.916 563.359 229.699 562.193 228.851C561.027 227.966 559.424 227.524 557.383 227.524H542.843V238.142H557.383Z" fill="black"/>
<path d="M601.259 208.056V223.099H623.068V208.056H629.901V244.336H623.068V229.293H601.259V244.336H594.426V208.056H601.259Z" fill="black"/>
<path d="M661.841 245C657.614 245 653.915 244.244 650.745 242.733C647.611 241.221 645.188 239.082 643.475 236.317C641.762 233.515 640.906 230.252 640.906 226.528V225.92C640.906 222.196 641.762 218.933 643.475 216.131C645.188 213.329 647.629 211.172 650.799 209.66C653.97 208.149 657.65 207.393 661.841 207.393C666.032 207.393 669.694 208.149 672.828 209.66C675.998 211.172 678.44 213.329 680.152 216.131C681.865 218.933 682.721 222.196 682.721 225.92V226.528C682.721 230.252 681.865 233.515 680.152 236.317C678.44 239.082 676.016 241.221 672.882 242.733C669.748 244.244 666.068 245 661.841 245ZM661.841 238.585C666.287 238.585 669.712 237.552 672.117 235.488C674.559 233.386 675.779 230.436 675.779 226.639V225.865C675.779 222.067 674.559 219.117 672.117 217.016C669.712 214.877 666.287 213.808 661.841 213.808C657.395 213.808 653.952 214.877 651.51 217.016C649.069 219.117 647.848 222.067 647.848 225.865V226.639C647.848 230.436 649.069 233.386 651.51 235.488C653.952 237.552 657.395 238.585 661.841 238.585Z" fill="black"/>
<path d="M730 209.107L713.93 225.754L729.344 243.286V244.336H721.364L707.644 229.017H700.538V244.336H693.705V208.056H700.538V222.823H707.589L721.746 208.056H730V209.107Z" fill="black"/>
<path d="M332.024 295H328.552V281.42C327.712 281.812 326.685 282.008 325.472 282.008H322.336V278.76H325.192C326.349 278.76 327.198 278.592 327.74 278.256C328.281 277.901 328.552 277.36 328.552 276.632H332.024V295ZM347.747 276.296C349.782 276.296 351.537 276.585 353.011 277.164C354.486 277.724 355.606 278.545 356.371 279.628C357.155 280.692 357.547 281.952 357.547 283.408V287.748C357.547 290.137 356.698 292.004 354.999 293.348C353.301 294.673 350.921 295.336 347.859 295.336C345.115 295.336 342.95 294.813 341.363 293.768C339.795 292.723 339.011 291.276 339.011 289.428V289.232H342.483V289.428C342.483 290.287 342.95 290.949 343.883 291.416C344.835 291.864 346.161 292.088 347.859 292.088C349.913 292.088 351.462 291.733 352.507 291.024C353.553 290.296 354.075 289.223 354.075 287.804V286.628C352.526 287.729 350.323 288.28 347.467 288.28C344.686 288.28 342.53 287.795 340.999 286.824C339.469 285.853 338.703 284.472 338.703 282.68V282.344C338.703 280.44 339.506 278.956 341.111 277.892C342.717 276.828 344.929 276.296 347.747 276.296ZM347.523 285.06C349.073 285.06 350.407 284.901 351.527 284.584C352.666 284.248 353.515 283.781 354.075 283.184C354.019 282.027 353.441 281.131 352.339 280.496C351.257 279.861 349.707 279.544 347.691 279.544C345.955 279.544 344.602 279.768 343.631 280.216C342.679 280.664 342.203 281.327 342.203 282.204V282.54C342.203 284.22 343.977 285.06 347.523 285.06ZM374.043 283.856C376.32 284.024 378.056 284.556 379.251 285.452C380.446 286.348 381.043 287.561 381.043 289.092V289.428C381.043 291.351 380.268 292.816 378.719 293.824C377.17 294.832 374.902 295.336 371.915 295.336C368.966 295.317 366.716 294.804 365.167 293.796C363.618 292.788 362.843 291.323 362.843 289.4V289.204H366.315V289.4C366.315 290.259 366.8 290.921 367.771 291.388C368.76 291.855 370.151 292.088 371.943 292.088C375.676 292.088 377.543 291.229 377.543 289.512V289.176C377.543 287.589 375.686 286.796 371.971 286.796H368.779V283.716L374.995 279.768H363.179V276.632H380.567V279.768L374.043 283.856ZM408.092 291.052H403.556V295H400.084V291.052H386.784V287.916C388.109 285.844 389.192 283.921 390.032 282.148C390.872 280.356 391.572 278.517 392.132 276.632H395.828V277.164C394.708 280.711 393.047 284.295 390.844 287.916H400.084V279.852H403.556V287.916H408.092V291.052Z" fill="black"/>
</svg>
